<svg xmlns="http://www.w3.org/2000/svg" viewBox="0 0 128 128" role="img" aria-label="DevLite logo">
  <defs>
    <linearGradient id="bg" x1="18" y1="16" x2="112" y2="116" gradientUnits="userSpaceOnUse">
      <stop offset="0" stop-color="#151c19"/>
      <stop offset="1" stop-color="#0b1110"/>
    </linearGradient>
    <linearGradient id="accent" x1="30" y1="28" x2="99" y2="96" gradientUnits="userSpaceOnUse">
      <stop offset="0" stop-color="#7ff2c8"/>
      <stop offset="1" stop-color="#28a6ff"/>
    </linearGradient>
  </defs>
  <rect x="8" y="8" width="112" height="112" rx="26" fill="url(#bg)"/>
  <rect x="21" y="21" width="86" height="86" rx="19" fill="none" stroke="#21362f" stroke-width="2"/>
  <path d="M38 41h-9V29h12M90 41h9V29H87M38 87h-9v12h12M90 87h9v12H87" fill="none" stroke="url(#accent)" stroke-width="7" stroke-linecap="round" stroke-linejoin="round"/>
  <path d="M40 66h29M40 50h18M40 82h22" fill="none" stroke="#d6fff2" stroke-width="7" stroke-linecap="round"/>
  <path d="M75 43l24 42-17-5-10 18-9-5 10-18-14-12z" fill="#f8fffc"/>
  <path d="M75 43l24 42-17-5-10 18-9-5 10-18-14-12z" fill="none" stroke="#0d1513" stroke-width="4" stroke-linejoin="round"/>
  <circle cx="87" cy="43" r="8" fill="#7ff2c8"/>
  <circle cx="87" cy="43" r="3" fill="#0d1513"/>
</svg>
